<svg width="81" height="81" viewBox="0 0 81 81" fill="none" xmlns="http://www.w3.org/2000/svg">
<path d="M70.6567 41.4806V36.4806C70.6567 35.0999 69.1644 33.9806 67.3234 33.9806H13.9901C12.1491 33.9806 10.6567 35.0999 10.6567 36.4806V41.4806C10.6567 42.8613 12.1491 43.9806 13.9901 43.9806H67.3234C69.1644 43.9806 70.6567 42.8613 70.6567 41.4806Z" fill="#DCDDDE"/>
<path d="M41.4902 10.6472H36.4902C35.1095 10.6472 33.9902 12.1396 33.9902 13.9806V67.3139C33.9902 69.1548 35.1095 70.6472 36.4902 70.6472H41.4902C42.8709 70.6472 43.9902 69.1548 43.9902 67.3139V13.9806C43.9902 12.1396 42.8709 10.6472 41.4902 10.6472Z" fill="#DCDDDE"/>
</svg>
